<svg xmlns="http://www.w3.org/2000/svg" viewBox="0 0 96 96" role="img" aria-labelledby="title">
  <title id="title">Midnight Bento Garage logo</title>
  <defs>
    <linearGradient id="g" x1="0" y1="0" x2="1" y2="1">
      <stop offset="0" stop-color="#ff806f"/>
      <stop offset="1" stop-color="#e74d3c"/>
    </linearGradient>
  </defs>
  <path fill="url(#g)" d="M48 4l8 7 11-1 4 10 10 4-1 11 7 8-7 8 1 11-10 4-4 10-11-1-8 7-8-7-11 1-4-10-10-4 1-11-7-8 7-8-1-11 10-4 4-10 11 1z"/>
  <circle cx="48" cy="43" r="27" fill="#fff7f2" stroke="#fff" stroke-width="3"/>
  <path d="M31 60l8-31 9 18 10-18 7 31h-7l-3-16-7 12-7-12-3 16z" fill="#ff6a5b"/>
  <path d="M27 72h42" stroke="#19c7d8" stroke-width="5" stroke-linecap="round"/>
</svg>
